<svg width="152" height="127" viewBox="0 0 152 127" fill="none" xmlns="http://www.w3.org/2000/svg">
<path fill-rule="evenodd" clip-rule="evenodd" d="M125.006 54.0159C132.035 59.9462 141.583 63.3231 151.577 63.4134C152.766 70.1128 151.434 76.9552 147.764 82.9956L137.147 100.228C133.403 106.403 127.405 111.426 120.019 114.572L99.488 123.286C92.1896 126.464 83.8787 127.645 75.7313 126.664L52.9718 123.629C44.8024 122.546 37.2495 119.343 31.3854 114.474L15.137 100.864C9.24601 95.9726 5.36463 89.6481 4.05049 82.7998L0.472322 63.9029C-0.806559 57.0442 0.527095 50.0234 4.28513 43.8311L14.9023 26.5497C18.6495 20.3885 24.6482 15.382 32.0306 12.2547L52.5611 3.54059C59.7951 0.468395 67.9972 -0.64398 76.0246 0.35847C76.1174 8.7165 80.165 16.7051 87.285 22.5832C94.405 28.4613 104.02 31.7523 114.035 31.739C114.035 40.0806 117.977 48.0855 125.006 54.0159ZM56.5985 57.5379C61.2623 57.5379 65.043 53.6611 65.043 48.8788C65.043 44.0965 61.2623 40.2197 56.5985 40.2197C51.9348 40.2197 48.1541 44.0965 48.1541 48.8788C48.1541 53.6611 51.9348 57.5379 56.5985 57.5379ZM53.7842 83.5155C53.7842 88.2978 50.0034 92.1746 45.3397 92.1746C40.676 92.1746 36.8953 88.2978 36.8953 83.5155C36.8953 78.7333 40.676 74.8564 45.3397 74.8564C50.0034 74.8564 53.7842 78.7333 53.7842 83.5155ZM96.0062 86.4031C100.67 86.4031 104.451 82.5263 104.451 77.744C104.451 72.9618 100.67 69.085 96.0062 69.085C91.3425 69.085 87.5618 72.9618 87.5618 77.744C87.5618 82.5263 91.3425 86.4031 96.0062 86.4031Z" fill="#ACD6E5"/>
</svg>
