<svg width="28" height="27" viewBox="0 0 28 27" fill="none" xmlns="http://www.w3.org/2000/svg">
<path d="M13.4967 0.0752405C13.4775 1.85052 12.7588 3.54656 11.4966 4.7951C10.2344 6.04364 8.53064 6.74388 6.75525 6.74378C6.75808 8.52275 6.05762 10.2307 4.80654 11.4955C3.55547 12.7602 1.8552 13.4792 0.0762952 13.4957C-0.137063 14.9216 0.0996913 16.3785 0.753569 17.6635L2.60826 21.3104C3.27386 22.6217 4.33943 23.6873 5.65077 24.3529L9.32889 26.2388C10.6468 26.9064 12.1411 27.1433 13.6009 26.9161L17.6229 26.2805C19.0805 26.0471 20.4265 25.3576 21.4677 24.3112L24.3644 21.425C25.4006 20.3833 26.0824 19.0417 26.3128 17.5906L26.9588 13.5478C27.1677 12.1005 26.9162 10.6243 26.2399 9.32784L24.3852 5.68098C23.7157 4.3689 22.6466 3.30347 21.3323 2.63846L17.6646 0.752515C16.3789 0.100629 14.9226 -0.136023 13.4967 0.0752405ZM19.4046 17.6635C19.4046 17.9974 19.3056 18.3237 19.1202 18.6013C18.9347 18.8789 18.6711 19.0952 18.3626 19.223C18.0542 19.3507 17.7148 19.3842 17.3873 19.319C17.0599 19.2539 16.7591 19.0932 16.5231 18.8571C16.287 18.621 16.1262 18.3202 16.0611 17.9928C15.996 17.6654 16.0294 17.326 16.1572 17.0175C16.2849 16.7091 16.5013 16.4455 16.7789 16.26C17.0565 16.0745 17.3828 15.9755 17.7167 15.9755C18.1635 15.9783 18.5912 16.157 18.9072 16.4729C19.2232 16.7889 19.4019 17.2167 19.4046 17.6635ZM10.9648 15.9755C10.975 16.3136 10.8835 16.647 10.7021 16.9324C10.5206 17.2178 10.2576 17.4422 9.94717 17.5763C9.63669 17.7105 9.29307 17.7483 8.96086 17.6848C8.62864 17.6214 8.32315 17.4596 8.08399 17.2204C7.84483 16.9813 7.68304 16.6758 7.61958 16.3436C7.55612 16.0113 7.59392 15.6677 7.72809 15.3573C7.86225 15.0468 8.0866 14.7838 8.37203 14.6023C8.65746 14.4209 8.99082 14.3294 9.32889 14.3397C9.76661 14.3558 10.1812 14.5404 10.486 14.8549C10.7909 15.1695 10.9624 15.5896 10.9648 16.0276L10.9648 15.9755ZM18.9072 8.77748C18.9072 9.11133 18.8082 9.43768 18.6227 9.71527C18.4373 9.99285 18.1736 10.2092 17.8652 10.337C17.5568 10.4647 17.2174 10.4981 16.8899 10.433C16.5625 10.3679 16.2617 10.2071 16.0257 9.97106C15.7896 9.73499 15.6288 9.43422 15.5637 9.10679C15.4986 8.77935 15.532 8.43996 15.6598 8.13152C15.7875 7.82309 16.0039 7.55946 16.2815 7.37398C16.559 7.1885 16.8854 7.08951 17.2192 7.08951C17.4449 7.09082 17.6681 7.13712 17.8757 7.22568C18.0834 7.31425 18.2712 7.4433 18.4284 7.60531C18.5855 7.76732 18.7088 7.95904 18.7911 8.16924C18.8733 8.37945 18.9128 8.60393 18.9072 8.82958L18.9072 8.77748Z" fill="#363CDE"/>
</svg>
