<svg width="189" height="190" viewBox="0 0 189 190" fill="none" xmlns="http://www.w3.org/2000/svg">
<path d="M137.892 43.3766L103.44 77.8293L103.362 77.907L103.296 77.9948C102.447 79.1265 101.973 80.4715 102.051 81.8779C102.13 83.2942 102.761 84.6353 103.881 85.7552C106.251 88.1249 109.879 88.1249 112.249 85.7552L146.26 51.7441V90.8442V90.9972L146.29 91.1473C146.842 93.9103 149.118 96.3637 152.221 96.3637C153.897 96.3637 155.413 95.7983 156.515 94.6967C157.616 93.5951 158.182 92.0785 158.182 90.4026V37.4156V36.974V36.5325V36.0909V35.6494V35.2078V34.7662V34.1261L157.729 33.6734L157.288 33.2319C157.287 33.2314 157.287 33.2309 157.286 33.2304C157.286 33.2304 157.286 33.2304 157.286 33.2304L156.846 32.7903L137.892 43.3766ZM137.892 43.3766H99.2338C96.1312 43.3766 93.8554 40.9233 93.3028 38.1602L93.2728 38.0102V37.8571V37.4156C93.2728 34.313 95.7261 32.0372 98.4891 31.4846L98.6392 31.4545H98.7922H152.221H152.662H153.104H153.546H153.987H154.429H154.87V33L137.892 43.3766ZM43.3766 98.7922V98.6392L43.3466 98.4891C42.794 95.7261 40.5181 93.2728 37.4156 93.2728C35.7397 93.2728 34.2231 93.8381 33.1215 94.9397C32.0199 96.0413 31.4545 97.5579 31.4545 99.2338V152.221V152.662V153.104V153.546V153.987V154.429V154.87V155.51L31.9072 155.963L32.3488 156.405C32.3493 156.405 32.3497 156.406 32.3502 156.406C32.3893 156.445 32.3942 156.453 32.4223 156.501C32.4476 156.544 32.4919 156.618 32.5972 156.776C32.68 156.9 32.8552 157.152 33.1472 157.364C33.3633 157.664 33.6297 157.851 33.8543 157.964C34.0868 158.08 34.3006 158.13 34.4432 158.154C34.5181 158.166 34.584 158.173 34.6371 158.177C34.664 158.179 34.6883 158.18 34.7098 158.181L34.74 158.182L34.7536 158.182L34.7601 158.182L34.7632 158.182H34.7647C34.7655 158.182 34.7662 158.182 34.7662 156.636L34.7662 158.182H35.2078H35.6494H36.0909H36.5325H36.974H37.4156H90.8442H90.9972L91.1473 158.152C93.9103 157.599 96.3637 155.323 96.3637 152.221V151.779V151.626L96.3336 151.476C95.781 148.713 93.5052 146.26 90.4026 146.26H51.7441L86.1967 111.807L86.2744 111.729L86.3403 111.642C87.189 110.51 87.6634 109.165 87.5853 107.758C87.5066 106.342 86.875 105.001 85.7552 103.881C83.3854 101.511 79.7575 101.511 77.3877 103.881L43.3766 137.892V98.7922Z" fill="#50535F" stroke="#50535F" stroke-width="3.09091"/>
</svg>
