<svg width="189" height="189" viewBox="0 0 189 189" fill="none" xmlns="http://www.w3.org/2000/svg">
<path d="M76.1069 134.815L69.1483 141.731C66.2332 144.6 62.3068 146.208 58.2164 146.208C54.126 146.208 50.1996 144.6 47.2845 141.731C45.8631 140.323 44.7349 138.648 43.9649 136.802C43.1949 134.955 42.7984 132.975 42.7984 130.975C42.7984 128.974 43.1949 126.994 43.9649 125.148C44.7349 123.302 45.8631 121.626 47.2845 120.219L72.8854 94.8328C78.1859 89.5665 88.1686 81.8175 95.4451 89.0339C96.2281 89.8689 97.1714 90.5375 98.2185 91C99.2657 91.4624 100.395 91.7092 101.54 91.7255C102.684 91.7418 103.821 91.5274 104.881 91.0949C105.94 90.6625 106.902 90.021 107.709 89.2087C108.515 88.3964 109.15 87.4299 109.575 86.367C110 85.304 110.206 84.1664 110.182 83.0219C110.157 81.8775 109.902 80.7497 109.432 79.7059C108.962 78.662 108.287 77.7236 107.447 76.9465C95.0929 64.6787 76.8114 66.9467 60.8924 82.7454L35.2915 108.14C32.2666 111.122 29.8667 114.678 28.2323 118.599C26.5979 122.52 25.7618 126.727 25.7728 130.975C25.7623 135.222 26.5986 139.43 28.233 143.35C29.8674 147.271 32.267 150.827 35.2915 153.809C41.3885 159.857 49.6331 163.243 58.2207 163.225C66.5281 163.225 74.8355 160.089 81.1498 153.809L88.117 146.894C88.9116 146.108 89.5431 145.173 89.9755 144.143C90.4078 143.112 90.6324 142.006 90.6364 140.889C90.6404 139.772 90.4237 138.664 89.9987 137.631C89.5738 136.597 88.9489 135.658 88.16 134.866C86.5652 133.267 84.4025 132.364 82.1441 132.355C79.8857 132.345 77.7153 133.229 76.1069 134.815V134.815ZM153.7 36.1569C140.41 22.9784 121.836 22.2654 109.551 34.4644L100.883 43.0725C99.2814 44.6629 98.377 46.8244 98.3689 49.0816C98.3609 51.3387 99.2498 53.5067 100.84 55.1084C102.431 56.7102 104.592 57.6145 106.849 57.6226C109.106 57.6306 111.274 56.7417 112.876 55.1514L121.553 46.5519C127.91 40.2289 136.252 42.8492 141.707 48.2443C144.594 51.1222 146.192 54.9366 146.192 59.0001C146.192 63.0636 144.594 66.878 141.707 69.7473L114.388 96.843C101.897 109.223 96.0379 103.424 93.5379 100.941C92.7448 100.153 91.8044 99.5299 90.7703 99.1059C89.7362 98.6819 88.6287 98.4657 87.5111 98.4697C86.3934 98.4737 85.2875 98.6977 84.2565 99.1291C83.2255 99.5605 82.2895 100.191 81.502 100.984C80.7146 101.777 80.091 102.717 79.667 103.751C79.243 104.786 79.0268 105.893 79.0308 107.011C79.0348 108.128 79.2589 109.234 79.6903 110.265C80.1217 111.296 80.7519 112.232 81.545 113.02C87.2837 118.707 93.83 121.525 100.686 121.525C109.079 121.525 117.953 117.298 126.398 108.922L153.717 81.8347C156.736 78.848 159.131 75.2914 160.763 71.3715C162.396 67.4516 163.233 63.2464 163.227 59.0001C163.235 54.7507 162.397 50.5423 160.761 46.6204C159.125 42.6985 156.725 39.1415 153.7 36.1569V36.1569Z" fill="#50535F"/>
</svg>
