<svg width="103" height="103" viewBox="0 0 103 103" fill="none" xmlns="http://www.w3.org/2000/svg">
<circle cx="51.5" cy="51.5" r="51.5" fill="#BBDFBA"/>
<path d="M74.2868 40.6154C74.2868 41.4073 74.0097 42.0805 73.4553 42.6348L51.9544 64.1357L47.9155 68.1746C47.3612 68.7289 46.688 69.0061 45.8961 69.0061C45.1042 69.0061 44.431 68.7289 43.8767 68.1746L39.8378 64.1357L29.0874 53.3853C28.533 52.8309 28.2559 52.1578 28.2559 51.3658C28.2559 50.5739 28.533 49.9008 29.0874 49.3464L33.1262 45.3076C33.6806 44.7532 34.3537 44.476 35.1457 44.476C35.9376 44.476 36.6107 44.7532 37.1651 45.3076L45.8961 54.0683L65.3776 34.5571C65.932 34.0028 66.6051 33.7256 67.397 33.7256C68.189 33.7256 68.8621 34.0028 69.4165 34.5571L73.4553 38.596C74.0097 39.1503 74.2868 39.8235 74.2868 40.6154Z" fill="#2B6F2A"/>
</svg>
