<svg width="120" height="112" viewBox="0 0 120 112" fill="none" xmlns="http://www.w3.org/2000/svg">
<path d="M31.8608 18.1125C33.7636 18.1125 35.3062 16.57 35.3062 14.6672C35.3062 12.7644 33.7636 11.2219 31.8608 11.2219C29.958 11.2219 28.4155 12.7644 28.4155 14.6672C28.4155 16.57 29.958 18.1125 31.8608 18.1125Z" fill="#ACD6E5"/>
<path d="M12.6655 18.1125C14.5683 18.1125 16.1108 16.57 16.1108 14.6672C16.1108 12.7644 14.5683 11.2219 12.6655 11.2219C10.7627 11.2219 9.22021 12.7644 9.22021 14.6672C9.22021 16.57 10.7627 18.1125 12.6655 18.1125Z" fill="#ACD6E5"/>
<path d="M0 101.063C0.0328125 106.87 4.725 111.563 10.5328 111.563H108.905C114.712 111.563 119.405 106.87 119.438 101.063V34.4532H0V101.063ZM39.3094 48.4969C39.9984 47.8079 41.0484 47.5454 42 47.8735L75.4031 58.9969C76.7812 59.4563 77.5359 60.9329 77.0766 62.311C76.9453 62.7047 76.7156 63.0329 76.4531 63.3282L67.1672 72.6141L80.1609 85.6079C81.1781 86.625 81.1781 88.2985 80.1609 89.3157C79.1437 90.3329 77.4703 90.3329 76.4531 89.3157L63.4594 76.3219L54.1406 85.6079C53.1234 86.625 51.45 86.625 50.4328 85.6079C50.1375 85.3125 49.9406 84.9844 49.8094 84.5907L38.6531 51.1875C38.3578 50.236 38.5875 49.186 39.3094 48.4969ZM51.0234 11.2219C49.1203 11.2219 47.5781 12.7641 47.5781 14.6672C47.5781 16.5704 49.1203 18.1125 51.0234 18.1125C52.9266 18.1125 54.4688 16.5704 54.4688 14.6672C54.4688 12.7641 52.9266 11.2219 51.0234 11.2219Z" fill="#ACD6E5"/>
<path d="M81.8682 95.9005L88.5548 98.4079L86.8832 92.1393L101.928 64.0318L31.719 40.3184L55.1535 111.363L81.8682 95.9005Z" fill="#ACD6E5"/>
<path d="M108.905 0H10.5328C4.725 0 0.0328125 4.69219 0 10.5V29.2031H119.438V10.5C119.405 4.69219 114.712 0 108.905 0ZM12.6656 23.3625C7.875 23.3625 3.97031 19.4578 3.97031 14.6672C3.97031 9.87656 7.875 5.97187 12.6656 5.97187C17.4562 5.97187 21.3609 9.87656 21.3609 14.6672C21.3609 19.4578 17.4562 23.3625 12.6656 23.3625ZM31.8609 23.3625C27.0703 23.3625 23.1656 19.4578 23.1656 14.6672C23.1656 9.87656 27.0703 5.97187 31.8609 5.97187C36.6516 5.97187 40.5563 9.87656 40.5563 14.6672C40.5563 19.4578 36.6516 23.3625 31.8609 23.3625ZM51.0234 23.3625C46.2328 23.3625 42.3281 19.4578 42.3281 14.6672C42.3281 9.87656 46.2328 5.97187 51.0234 5.97187C55.8141 5.97187 59.7188 9.87656 59.7188 14.6672C59.7188 19.4578 55.8469 23.3625 51.0234 23.3625Z" fill="#ACD6E5"/>
</svg>
