<svg width="185" height="128" viewBox="0 0 185 128" fill="none" xmlns="http://www.w3.org/2000/svg">
<path d="M0 113.317C0.042975 120.924 6.18839 127.069 13.795 127.069H170.695C178.302 127.069 184.447 120.924 184.49 113.317V46.8838H0V113.317Z" fill="#ACD6E5"/>
<path d="M170.695 0H13.795C6.18839 0 0.042975 6.14542 0 13.752V38.2477H184.49V13.752C184.447 6.14542 178.302 0 170.695 0Z" fill="#ACD6E5"/>
<path d="M17.0721 17.7418C18.9529 17.7418 20.4776 16.217 20.4776 14.3362C20.4776 12.4554 18.9529 10.9307 17.0721 10.9307C15.1912 10.9307 13.6665 12.4554 13.6665 14.3362C13.6665 16.217 15.1912 17.7418 17.0721 17.7418Z" fill="white"/>
<path d="M26.6389 17.7418C28.5198 17.7418 30.0445 16.217 30.0445 14.3362C30.0445 12.4554 28.5198 10.9307 26.6389 10.9307C24.7581 10.9307 23.2334 12.4554 23.2334 14.3362C23.2334 16.217 24.7581 17.7418 26.6389 17.7418Z" fill="white"/>
<path d="M36.2058 17.7418C38.0867 17.7418 39.6114 16.217 39.6114 14.3362C39.6114 12.4554 38.0867 10.9307 36.2058 10.9307C34.325 10.9307 32.8003 12.4554 32.8003 14.3362C32.8003 16.217 34.325 17.7418 36.2058 17.7418Z" fill="white"/>
</svg>