<svg width="142" height="82" viewBox="0 0 142 82" fill="none" xmlns="http://www.w3.org/2000/svg">
<path d="M141.207 8.3252H79.1717M141.207 75.9999H39.6948H141.207ZM141.207 53.4417H39.6948H141.207ZM141.207 30.8834H79.1717H141.207Z" stroke="#ACD6E5" stroke-width="11.2791" stroke-miterlimit="10"/>
<path d="M53.7937 36.837C61.5803 36.837 67.8926 30.5247 67.8926 22.7381C67.8926 14.9515 61.5803 8.63916 53.7937 8.63916C46.0071 8.63916 39.6948 14.9515 39.6948 22.7381C39.6948 30.5247 46.0071 36.837 53.7937 36.837Z" fill="#ACD6E5"/>
<path d="M14.3167 36.837C22.1033 36.837 28.4156 30.5247 28.4156 22.7381C28.4156 14.9515 22.1033 8.63916 14.3167 8.63916C6.53007 8.63916 0.217773 14.9515 0.217773 22.7381C0.217773 30.5247 6.53007 36.837 14.3167 36.837Z" fill="#ACD6E5"/>
<path d="M22.7761 3C17.542 3.00299 12.5232 5.08353 8.82216 8.78457C5.12113 12.4856 3.04059 17.5044 3.0376 22.7385M62.253 3C57.0189 3.00299 52.0001 5.08353 48.2991 8.78457C44.5981 12.4856 42.5175 17.5044 42.5145 22.7385" stroke="#ACD6E5" stroke-width="5.63956" stroke-miterlimit="10"/>
</svg>
