<svg width="189" height="130" viewBox="0 0 189 130" fill="none" xmlns="http://www.w3.org/2000/svg">
<path fill-rule="evenodd" clip-rule="evenodd" d="M156.925 1.81199L187.076 31.2834C188.199 32.2236 188.902 33.6161 188.907 35.1735C188.907 35.2485 188.884 35.3166 188.862 35.3845C188.843 35.4431 188.824 35.5014 188.819 35.5637V108.601C188.819 119.867 179.658 129.043 168.383 129.043H21.0196C9.74458 129.043 0.573242 119.867 0.573242 108.601V20.4936C0.573242 9.21985 9.74932 0.0519414 21.0196 0.0519414L152.204 0.0510936C153.96 -0.189417 155.758 0.422752 156.925 1.81199ZM34.1018 34.8783C30.9945 34.8783 28.4755 37.3973 28.4755 40.5046V90.6348C28.4755 93.7421 30.9944 96.2611 34.1018 96.2611H151.893C155 96.2611 157.519 93.7421 157.519 90.6348V40.5046C157.519 37.3973 155 34.8783 151.893 34.8783H34.1018Z" fill="#ACD6E5"/>
<path d="M167.875 27.8994H16.9434C7.91506 27.8994 0.573242 35.2364 0.573242 44.2696V88.2577C0.573242 97.2936 7.91782 104.628 16.9434 104.628H167.869C176.889 104.628 184.233 97.2909 184.233 88.2577V44.2696C184.239 35.2357 176.895 27.8994 167.875 27.8994ZM84.0802 73.6465C84.0721 76.6416 83.6951 79.3699 82.9517 81.8316C82.203 84.2799 81.0744 86.3888 79.5689 88.134C78.0552 89.8955 76.1564 91.2529 73.8858 92.2279C71.5992 93.1921 68.9139 93.6797 65.8249 93.6797C64.4189 93.6797 63.0372 93.6016 61.6771 93.4642C60.3116 93.3107 58.8976 93.0629 57.4216 92.7316L58.0868 85.465C58.1649 84.832 58.4181 84.3149 58.8679 83.927C59.3069 83.5257 59.9345 83.348 60.7452 83.348C61.1627 83.348 61.6798 83.4099 62.2885 83.5419C62.8999 83.6819 63.6406 83.7358 64.4971 83.7358C65.701 83.7358 66.7514 83.5742 67.6483 83.2402C68.5452 82.9009 69.2859 82.3595 69.873 81.573C70.4683 80.8081 70.9073 79.79 71.2009 78.5376C71.5026 77.2879 71.648 75.7419 71.648 73.8969V39.4246H84.097V73.6466L84.0802 73.6465ZM126.121 82.8686C125.278 85.0313 124.012 86.9087 122.383 88.5139C120.753 90.1191 118.747 91.4012 116.352 92.3142C113.966 93.2326 111.257 93.6959 108.189 93.6959C106.53 93.6959 104.822 93.5343 103.093 93.1788C101.372 92.8475 99.6884 92.3681 98.0724 91.727C96.4429 91.1102 94.9292 90.3668 93.5018 89.5104C92.0797 88.662 90.8299 87.687 89.7796 86.6312L93.4641 80.8162C93.7577 80.3826 94.1429 80.0432 94.6223 79.7577C95.1017 79.4884 95.6188 79.3321 96.1898 79.3321C96.9089 79.3321 97.6658 79.5557 98.4064 80.0351C99.1633 80.5064 100.006 81.0155 100.971 81.573C101.921 82.1359 102.993 82.6611 104.213 83.1163C105.433 83.5877 106.901 83.8273 108.56 83.8273C110.823 83.8273 112.576 83.3183 113.842 82.3298C115.092 81.3333 115.711 79.7576 115.711 77.6029C115.711 76.3532 115.38 75.3324 114.685 74.546C114.006 73.7514 113.085 73.1104 111.981 72.5987C110.861 72.0734 109.578 71.6263 108.167 71.2385C106.745 70.8291 105.272 70.4036 103.796 69.9268C102.29 69.4393 100.822 68.8522 99.4084 68.1573C97.9728 67.4544 96.7042 66.544 95.6 65.3939C94.4796 64.26 93.5773 62.8379 92.8905 61.1303C92.2037 59.4227 91.8643 57.3165 91.8643 54.8143C91.8643 52.8132 92.2737 50.8443 93.0763 48.9212C93.887 47.0144 95.0829 45.3067 96.6531 43.8011C98.2206 42.2955 100.152 41.105 102.43 40.2109C104.725 39.314 107.335 38.8669 110.276 38.8669C111.922 38.8669 113.519 38.9989 115.087 39.2601C116.638 39.516 118.122 39.8931 119.52 40.394C120.926 40.9031 122.237 41.5064 123.444 42.2013C124.664 42.9123 125.752 43.6988 126.703 44.5795L123.614 50.3406C123.237 50.9278 122.857 51.3668 122.456 51.6685C122.046 51.9621 121.537 52.1075 120.904 52.1075C120.333 52.1075 119.73 51.9378 119.081 51.5742C118.416 51.2268 117.675 50.8255 116.848 50.3837C116.037 49.9447 115.079 49.5407 114.028 49.1879C112.97 48.8243 111.782 48.6546 110.422 48.6546C108.097 48.6546 106.368 49.1501 105.218 50.1521C104.076 51.1406 103.497 52.4845 103.497 54.176C103.497 55.256 103.861 56.1448 104.539 56.8639C105.234 57.5831 106.123 58.1837 107.243 58.7089C108.372 59.226 109.646 59.6973 111.09 60.1229C112.525 60.5619 113.985 61.0333 115.477 61.5666C116.983 62.0918 118.434 62.7167 119.878 63.4439C121.314 64.1468 122.582 65.0491 123.708 66.1615C124.828 67.2658 125.731 68.6017 126.412 70.1854C127.107 71.7691 127.455 73.684 127.455 75.9142C127.419 78.3975 126.989 80.7058 126.121 82.8686Z" fill="#ACD6E5"/>
</svg>