<svg width="77" height="77" viewBox="0 0 77 77" fill="none" xmlns="http://www.w3.org/2000/svg">
<path d="M38.4981 6.41626C32.1527 6.41626 25.9497 8.29791 20.6736 11.8233C15.3975 15.3486 11.2853 20.3594 8.85701 26.2218C6.4287 32.0843 5.79334 38.5352 7.03128 44.7587C8.26922 50.9823 11.3249 56.699 15.8118 61.1859C20.2987 65.6729 26.0154 68.7285 32.239 69.9665C38.4626 71.2044 44.9134 70.569 50.7759 68.1407C56.6384 65.7124 61.6491 61.6002 65.1745 56.3241C68.6998 51.0481 70.5815 44.8451 70.5815 38.4996C70.5815 34.2863 69.7516 30.1144 68.1393 26.2218C66.5269 22.3293 64.1637 18.7925 61.1845 15.8132C58.2053 12.834 54.6684 10.4708 50.7759 8.85846C46.8834 7.24612 42.7114 6.41626 38.4981 6.41626V6.41626ZM38.4981 57.7496C37.8636 57.7496 37.2433 57.5614 36.7157 57.2089C36.1881 56.8564 35.7769 56.3553 35.534 55.769C35.2912 55.1828 35.2277 54.5377 35.3515 53.9153C35.4753 53.293 35.7808 52.7213 36.2295 52.2726C36.6782 51.8239 37.2499 51.5184 37.8722 51.3946C38.4946 51.2708 39.1397 51.3343 39.7259 51.5771C40.3122 51.82 40.8132 52.2312 41.1658 52.7588C41.5183 53.2864 41.7065 53.9067 41.7065 54.5413C41.7065 55.3922 41.3685 56.2082 40.7668 56.8099C40.1651 57.4116 39.349 57.7496 38.4981 57.7496ZM41.7065 41.1946V44.9163C41.7065 45.7672 41.3685 46.5832 40.7668 47.1849C40.1651 47.7866 39.349 48.1246 38.4981 48.1246C37.6472 48.1246 36.8312 47.7866 36.2295 47.1849C35.6278 46.5832 35.2898 45.7672 35.2898 44.9163V38.4996C35.2898 37.6487 35.6278 36.8326 36.2295 36.231C36.8312 35.6293 37.6472 35.2913 38.4981 35.2913C39.45 35.2913 40.3804 35.009 41.1718 34.4802C41.9632 33.9514 42.5801 33.1998 42.9443 32.3204C43.3086 31.4411 43.4039 30.4734 43.2182 29.5399C43.0325 28.6064 42.5741 27.7488 41.9011 27.0758C41.2281 26.4028 40.3705 25.9444 39.437 25.7587C38.5035 25.573 37.5358 25.6683 36.6565 26.0326C35.7771 26.3968 35.0255 27.0137 34.4967 27.8051C33.9679 28.5965 33.6856 29.5269 33.6856 30.4788C33.6856 31.3297 33.3476 32.1457 32.7459 32.7474C32.1443 33.3491 31.3282 33.6871 30.4773 33.6871C29.6264 33.6871 28.8104 33.3491 28.2087 32.7474C27.607 32.1457 27.269 31.3297 27.269 30.4788C27.2606 28.3943 27.8325 26.3487 28.9208 24.5709C30.0091 22.793 31.5708 21.3532 33.431 20.4126C35.2911 19.472 37.3764 19.0678 39.4533 19.2451C41.5302 19.4224 43.5168 20.1743 45.1906 21.4167C46.8644 22.659 48.1594 24.3427 48.9305 26.2793C49.7017 28.2158 49.9186 30.3288 49.5569 32.3817C49.1953 34.4345 48.2694 36.3462 46.8829 37.9027C45.4964 39.4592 43.704 40.599 41.7065 41.1946V41.1946Z" fill="#989BA5"/>
</svg>
