<svg width="70" height="59" viewBox="0 0 70 59" fill="none" xmlns="http://www.w3.org/2000/svg">
<path d="M69.6919 29.315C69.6963 30.0791 69.5499 30.8366 69.2609 31.5439C68.972 32.2513 68.5463 32.8947 68.0082 33.4371L44.7851 56.6602C43.6919 57.7535 42.2091 58.3677 40.663 58.3677C39.1169 58.3677 37.6342 57.7535 36.5409 56.6602C35.4477 55.567 34.8335 54.0842 34.8335 52.5381C34.8335 50.9921 35.4477 49.5093 36.5409 48.416L55.7 29.315L36.599 10.214C35.6478 9.10339 35.1508 7.67473 35.2073 6.21356C35.2637 4.75238 35.8694 3.36631 36.9034 2.33234C37.9374 1.29836 39.3235 0.692638 40.7846 0.636196C42.2458 0.579758 43.6745 1.07676 44.7851 2.0279L68.0082 25.251C69.0808 26.3324 69.6855 27.792 69.6919 29.315Z" fill="#363CDE"/>
<path d="M34.8584 29.315C34.8628 30.0791 34.7164 30.8366 34.4274 31.5439C34.1385 32.2513 33.7128 32.8947 33.1747 33.4371L9.95163 56.6602C8.85838 57.7535 7.37562 58.3677 5.82953 58.3677C4.28344 58.3677 2.80068 57.7535 1.70743 56.6602C0.614179 55.567 0 54.0842 0 52.5381C0 50.9921 0.614179 49.5093 1.70743 48.416L20.8665 29.315L1.76549 10.214C0.814348 9.10339 0.317335 7.67473 0.373774 6.21356C0.430213 4.75238 1.03595 3.36631 2.06992 2.33234C3.1039 1.29836 4.48996 0.692638 5.95114 0.636196C7.41231 0.579758 8.84098 1.07676 9.95163 2.0279L33.1747 25.251C34.2473 26.3324 34.852 27.792 34.8584 29.315Z" fill="#363CDE"/>
</svg>
