<svg width="27" height="22" viewBox="0 0 27 22" fill="none" xmlns="http://www.w3.org/2000/svg">
<path fill-rule="evenodd" clip-rule="evenodd" d="M22.205 9.35708C23.4535 10.3844 25.1495 10.9694 26.9248 10.985C27.1361 12.1455 26.8994 13.3308 26.2476 14.3772L24.3616 17.3623C23.6966 18.4321 22.6312 19.3022 21.3191 19.8471L17.6722 21.3567C16.3758 21.9071 14.8995 22.1118 13.4523 21.9418L9.40946 21.416C7.95833 21.2285 6.61668 20.6736 5.57504 19.8302L2.6888 17.4726C1.64238 16.6252 0.952928 15.5296 0.719496 14.3433L0.0838993 11.0698C-0.14327 9.88167 0.0936287 8.66547 0.761175 7.59279L2.64713 4.59917C3.31274 3.53186 4.37831 2.6646 5.68965 2.12286L9.33652 0.613331C10.6215 0.0811392 12.0785 -0.111556 13.5044 0.0620972C13.5209 1.50994 14.2398 2.8938 15.5046 3.91205C16.7693 4.9303 18.4773 5.5004 20.2563 5.4981C20.2562 6.94309 20.9564 8.32978 22.205 9.35708ZM10.5 10C11.3284 10 12 9.32843 12 8.5C12 7.67157 11.3284 7 10.5 7C9.67157 7 9 7.67157 9 8.5C9 9.32843 9.67157 10 10.5 10ZM10 14.5C10 15.3284 9.32843 16 8.5 16C7.67157 16 7 15.3284 7 14.5C7 13.6716 7.67157 13 8.5 13C9.32843 13 10 13.6716 10 14.5ZM17.5 15C18.3284 15 19 14.3284 19 13.5C19 12.6716 18.3284 12 17.5 12C16.6716 12 16 12.6716 16 13.5C16 14.3284 16.6716 15 17.5 15Z" fill="#363CDE"/>
</svg>
