<svg width="25" height="21" viewBox="0 0 25 21" fill="none" xmlns="http://www.w3.org/2000/svg">
<path d="M15.0833 0.931555C14.4097 0.336565 13.4762 0 12.5001 0C11.524 0 10.5905 0.336555 9.91689 0.931555L0.88893 9.44567C0.31555 9.98152 -0.00112793 10.6774 3.01878e-06 11.3987V18.0763C3.01878e-06 18.8516 0.365746 19.5955 1.01702 20.1436C1.66809 20.692 2.55137 21 3.47214 21H6.24999C7.171 21 8.05409 20.692 8.7051 20.1436C9.35635 19.5954 9.72213 18.8516 9.72213 18.0763V17.1316C9.72213 16.6664 9.94162 16.2202 10.3325 15.8911C10.7231 15.5622 11.253 15.3773 11.8055 15.3773H13.1945C13.747 15.3773 14.2769 15.5622 14.6675 15.8911C15.0583 16.2202 15.2778 16.6664 15.2778 17.1316V18.0763C15.2778 18.8516 15.6436 19.5955 16.2949 20.1436C16.9459 20.692 17.829 21 18.75 21H21.5278C22.4486 21 23.3319 20.692 23.9829 20.1436C24.6342 19.5954 25 18.8516 25 18.0763V11.3987C25.0044 10.6803 24.687 9.98724 24.111 9.45725L15.0833 0.931555Z" fill="#363CDE"/>
</svg>
