<svg width="27" height="19" viewBox="0 0 27 19" fill="none" xmlns="http://www.w3.org/2000/svg">
<path d="M1.82644 0.229255C2.16523 0.079167 2.52707 0.00141746 2.89256 0H24.1068C24.4723 0.00141372 24.8341 0.0791666 25.173 0.229019L14.0958 9.75617C13.926 9.90272 13.7161 9.9826 13.4998 9.9826C13.2837 9.9826 13.0736 9.90319 12.9038 9.75664L1.82644 0.229255ZM15.2873 11.4163C14.7781 11.856 14.1485 12.0949 13.4999 12.0952C12.8516 12.0952 12.2221 11.8562 11.7125 11.4168L0.36591 1.65685C0.129142 2.11818 0.00322898 2.63773 0 3.16666V15.8333C0.000860969 16.6728 0.30586 17.4779 0.848296 18.0714C1.39049 18.6652 2.126 18.999 2.89286 19H24.1071C24.8741 18.9991 25.6096 18.6652 26.1517 18.0714C26.6941 17.4779 26.9991 16.6728 27 15.8333V3.16666C26.9968 2.63747 26.8709 2.11816 26.6341 1.65685L15.2873 11.4163Z" fill="#363CDE"/>
</svg>
