<svg width="27" height="19" viewBox="0 0 27 19" fill="none" xmlns="http://www.w3.org/2000/svg">
<path d="M0 16.5833C0.00628936 17.6966 0.905668 18.5959 2.01888 18.5959H24.9811C26.0943 18.5959 26.9937 17.6966 27 16.5833V6.86084H0V16.5833Z" fill="#363CDE"/>
<path fill-rule="evenodd" clip-rule="evenodd" d="M2.01888 0H24.9811C26.0943 0 26.9937 0.899379 27 2.0126V5.59753H0V2.0126C0.00628936 0.899379 0.905668 0 2.01888 0ZM4.47161 2.8359C4.47161 3.51842 3.91832 4.07171 3.23581 4.07171C2.55329 4.07171 2 3.51842 2 2.8359C2 2.15339 2.55329 1.6001 3.23581 1.6001C3.91832 1.6001 4.47161 2.15339 4.47161 2.8359ZM6.70749 4.07171C7.39 4.07171 7.94329 3.51842 7.94329 2.8359C7.94329 2.15339 7.39 1.6001 6.70749 1.6001C6.02497 1.6001 5.47168 2.15339 5.47168 2.8359C5.47168 3.51842 6.02497 4.07171 6.70749 4.07171ZM11.4147 2.8359C11.4147 3.51842 10.8614 4.07171 10.1789 4.07171C9.4964 4.07171 8.94312 3.51842 8.94312 2.8359C8.94312 2.15339 9.4964 1.6001 10.1789 1.6001C10.8614 1.6001 11.4147 2.15339 11.4147 2.8359Z" fill="#363CDE"/>
</svg>
