<svg width="27" height="19" viewBox="0 0 27 19" fill="none" xmlns="http://www.w3.org/2000/svg">
<path fill-rule="evenodd" clip-rule="evenodd" d="M22.415 0.259772L26.7375 4.48488C26.8985 4.61966 26.9993 4.81929 27 5.04257C27 5.05331 26.9968 5.06309 26.9936 5.07282C26.9909 5.08121 26.9881 5.08958 26.9875 5.09851V15.5694C26.9875 17.1845 25.6741 18.5 24.0576 18.5H2.93125C1.31483 18.5 0 17.1844 0 15.5694V2.93802C0 1.32178 1.31551 0.00744646 2.93125 0.00744646L21.7382 0.00732492C21.9899 -0.0271553 22.2477 0.0606069 22.415 0.259772ZM6 5C4.89543 5 4 5.89543 4 7V11.8C4 12.9046 4.89543 13.8 6 13.8H20.5C21.6046 13.8 22.5 12.9046 22.5 11.8V7C22.5 5.89543 21.6046 5 20.5 5H6Z" fill="#363CDE"/>
<path d="M23.9849 4H2.34687C1.05254 4 0 5.05185 0 6.34687V12.6531C0 13.9485 1.05294 15 2.34687 15H23.9839C25.277 15 26.33 13.9481 26.33 12.6531V6.34687C26.3308 5.05175 25.278 4 23.9849 4ZM11.9718 10.5584C11.9706 10.9878 11.9166 11.379 11.81 11.7319C11.7027 12.0829 11.5409 12.3852 11.325 12.6354C11.108 12.8879 10.8358 13.0825 10.5103 13.2223C10.1825 13.3605 9.79751 13.4304 9.35465 13.4304C9.15309 13.4304 8.95501 13.4192 8.76002 13.3995C8.56425 13.3775 8.36154 13.342 8.14993 13.2945L8.2453 12.2528C8.2565 12.162 8.2928 12.0879 8.35728 12.0323C8.42022 11.9747 8.51019 11.9493 8.62641 11.9493C8.68626 11.9493 8.76041 11.9581 8.84767 11.9771C8.93532 11.9971 9.0415 12.0049 9.16429 12.0049C9.33689 12.0049 9.48748 11.9817 9.61606 11.9338C9.74465 11.8852 9.85083 11.8075 9.93501 11.6948C10.0203 11.5851 10.0833 11.4392 10.1254 11.2596C10.1686 11.0805 10.1895 10.8588 10.1895 10.5943V5.65228H11.9742V10.5584L11.9718 10.5584ZM17.9989 11.8805C17.878 12.1906 17.6966 12.4597 17.4629 12.6899C17.2293 12.92 16.9417 13.1038 16.5984 13.2347C16.2563 13.3663 15.8679 13.4328 15.428 13.4328C15.1902 13.4328 14.9454 13.4096 14.6975 13.3586C14.4507 13.3111 14.2094 13.2424 13.9777 13.1505C13.7441 13.0621 13.5271 12.9555 13.3225 12.8327C13.1186 12.7111 12.9394 12.5713 12.7889 12.4199L13.3171 11.5863C13.3592 11.5241 13.4144 11.4755 13.4831 11.4345C13.5519 11.3959 13.626 11.3735 13.7078 11.3735C13.8109 11.3735 13.9194 11.4056 14.0256 11.4743C14.1341 11.5419 14.255 11.6149 14.3932 11.6948C14.5295 11.7755 14.6832 11.8508 14.8581 11.916C15.033 11.9836 15.2435 12.018 15.4813 12.018C15.8057 12.018 16.057 11.945 16.2385 11.8033C16.4177 11.6604 16.5065 11.4345 16.5065 11.1256C16.5065 10.9465 16.459 10.8001 16.3594 10.6874C16.2621 10.5735 16.13 10.4816 15.9717 10.4082C15.8111 10.3329 15.6273 10.2688 15.425 10.2132C15.2211 10.1545 15.0099 10.0935 14.7983 10.0252C14.5824 9.95528 14.372 9.8711 14.1693 9.77148C13.9635 9.6707 13.7816 9.54019 13.6233 9.37531C13.4627 9.21276 13.3333 9.00888 13.2348 8.76407C13.1364 8.51926 13.0877 8.21732 13.0877 7.85859C13.0877 7.57171 13.1464 7.28945 13.2615 7.01375C13.3777 6.74037 13.5492 6.49556 13.7743 6.27971C13.999 6.06387 14.2758 5.89319 14.6025 5.76501C14.9315 5.63642 15.3057 5.57233 15.7273 5.57233C15.9632 5.57233 16.1922 5.59125 16.4169 5.6287C16.6393 5.66539 16.8521 5.71944 17.0525 5.79126C17.2541 5.86424 17.4421 5.95074 17.6151 6.05036C17.79 6.15229 17.946 6.26504 18.0823 6.3913L17.6394 7.21724C17.5854 7.30141 17.5309 7.36435 17.4734 7.4076C17.4147 7.44969 17.3417 7.47054 17.251 7.47054C17.1691 7.47054 17.0826 7.44621 16.9896 7.39409C16.8942 7.34427 16.788 7.28674 16.6695 7.22341C16.5532 7.16047 16.4158 7.10255 16.2652 7.05197C16.1134 6.99984 15.9432 6.97552 15.7482 6.97552C15.4149 6.97552 15.167 7.04656 15.0022 7.1902C14.8385 7.33191 14.7554 7.52459 14.7554 7.76708C14.7554 7.92191 14.8076 8.04934 14.9049 8.15243C15.0045 8.25553 15.1319 8.34164 15.2925 8.41693C15.4543 8.49107 15.637 8.55864 15.8439 8.61965C16.0497 8.68259 16.259 8.75016 16.4729 8.82662C16.6888 8.90191 16.8969 8.9915 17.1039 9.09575C17.3097 9.19653 17.4915 9.32588 17.6529 9.48536C17.8136 9.64367 17.9429 9.83519 18.0406 10.0622C18.1402 10.2893 18.19 10.5638 18.19 10.8835C18.185 11.2395 18.1232 11.5705 17.9989 11.8805Z" fill="#363CDE"/>
</svg>
